<mxfile host="app.diagrams.net" modified="2023-09-29T14:22:46.163Z" agent="Mozilla/5.0 (X11; Linux x86_64; rv:109.0) Gecko/20100101 Firefox/112.0" etag="FJAwd9dTEoV99iEEEBpn" version="22.0.0" type="github">
  <diagram id="C5RBs43oDa-KdzZeNtuy" name="DiagramaAtividade">
    <mxGraphModel dx="880" dy="478" grid="1" gridSize="10" guides="1" tooltips="1" connect="1" arrows="1" fold="1" page="1" pageScale="1" pageWidth="827" pageHeight="1169" math="0" shadow="0">
      <root>
        <mxCell id="WIyWlLk6GJQsqaUBKTNV-0" />
        <mxCell id="WIyWlLk6GJQsqaUBKTNV-1" parent="WIyWlLk6GJQsqaUBKTNV-0" />
        <mxCell id="2d2iZHLiT1Cx9WOOCi-t-0" value="Arquiteta" style="swimlane;whiteSpace=wrap;html=1;" vertex="1" parent="WIyWlLk6GJQsqaUBKTNV-1">
          <mxGeometry x="70" y="20" width="860" height="460" as="geometry" />
        </mxCell>
        <mxCell id="2d2iZHLiT1Cx9WOOCi-t-5" value="" style="edgeStyle=orthogonalEdgeStyle;rounded=0;orthogonalLoop=1;jettySize=auto;html=1;" edge="1" parent="2d2iZHLiT1Cx9WOOCi-t-0" source="2d2iZHLiT1Cx9WOOCi-t-3" target="2d2iZHLiT1Cx9WOOCi-t-4">
          <mxGeometry relative="1" as="geometry" />
        </mxCell>
        <mxCell id="2d2iZHLiT1Cx9WOOCi-t-3" value="" style="ellipse;fillColor=strokeColor;html=1;" vertex="1" parent="2d2iZHLiT1Cx9WOOCi-t-0">
          <mxGeometry x="20" y="70" width="30" height="30" as="geometry" />
        </mxCell>
        <mxCell id="2d2iZHLiT1Cx9WOOCi-t-7" value="" style="edgeStyle=orthogonalEdgeStyle;rounded=0;orthogonalLoop=1;jettySize=auto;html=1;" edge="1" parent="2d2iZHLiT1Cx9WOOCi-t-0" source="2d2iZHLiT1Cx9WOOCi-t-4" target="2d2iZHLiT1Cx9WOOCi-t-6">
          <mxGeometry relative="1" as="geometry" />
        </mxCell>
        <mxCell id="2d2iZHLiT1Cx9WOOCi-t-4" value="&lt;strong&gt;Iniciar Geração de Relatório&lt;/strong&gt;" style="ellipse;whiteSpace=wrap;html=1;" vertex="1" parent="2d2iZHLiT1Cx9WOOCi-t-0">
          <mxGeometry x="105" y="45" width="80" height="80" as="geometry" />
        </mxCell>
        <mxCell id="2d2iZHLiT1Cx9WOOCi-t-9" value="" style="edgeStyle=orthogonalEdgeStyle;rounded=0;orthogonalLoop=1;jettySize=auto;html=1;" edge="1" parent="2d2iZHLiT1Cx9WOOCi-t-0" source="2d2iZHLiT1Cx9WOOCi-t-6" target="2d2iZHLiT1Cx9WOOCi-t-8">
          <mxGeometry relative="1" as="geometry" />
        </mxCell>
        <mxCell id="2d2iZHLiT1Cx9WOOCi-t-6" value="&lt;strong&gt;Coletar Critérios de Seleção&lt;/strong&gt;" style="ellipse;whiteSpace=wrap;html=1;" vertex="1" parent="2d2iZHLiT1Cx9WOOCi-t-0">
          <mxGeometry x="265" y="45" width="80" height="80" as="geometry" />
        </mxCell>
        <mxCell id="2d2iZHLiT1Cx9WOOCi-t-11" value="" style="edgeStyle=orthogonalEdgeStyle;rounded=0;orthogonalLoop=1;jettySize=auto;html=1;" edge="1" parent="2d2iZHLiT1Cx9WOOCi-t-0" source="2d2iZHLiT1Cx9WOOCi-t-8" target="2d2iZHLiT1Cx9WOOCi-t-10">
          <mxGeometry relative="1" as="geometry" />
        </mxCell>
        <mxCell id="2d2iZHLiT1Cx9WOOCi-t-8" value="&lt;strong&gt;Buscar Dados&lt;/strong&gt;" style="ellipse;whiteSpace=wrap;html=1;" vertex="1" parent="2d2iZHLiT1Cx9WOOCi-t-0">
          <mxGeometry x="425" y="45" width="80" height="80" as="geometry" />
        </mxCell>
        <mxCell id="2d2iZHLiT1Cx9WOOCi-t-13" value="Sim" style="edgeStyle=orthogonalEdgeStyle;rounded=0;orthogonalLoop=1;jettySize=auto;html=1;" edge="1" parent="2d2iZHLiT1Cx9WOOCi-t-0" source="2d2iZHLiT1Cx9WOOCi-t-10" target="2d2iZHLiT1Cx9WOOCi-t-12">
          <mxGeometry relative="1" as="geometry" />
        </mxCell>
        <mxCell id="2d2iZHLiT1Cx9WOOCi-t-15" value="Não" style="edgeStyle=orthogonalEdgeStyle;rounded=0;orthogonalLoop=1;jettySize=auto;html=1;" edge="1" parent="2d2iZHLiT1Cx9WOOCi-t-0" source="2d2iZHLiT1Cx9WOOCi-t-10" target="2d2iZHLiT1Cx9WOOCi-t-14">
          <mxGeometry relative="1" as="geometry" />
        </mxCell>
        <mxCell id="2d2iZHLiT1Cx9WOOCi-t-10" value="" style="rhombus;whiteSpace=wrap;html=1;" vertex="1" parent="2d2iZHLiT1Cx9WOOCi-t-0">
          <mxGeometry x="585" y="45" width="80" height="80" as="geometry" />
        </mxCell>
        <mxCell id="2d2iZHLiT1Cx9WOOCi-t-18" value="" style="edgeStyle=orthogonalEdgeStyle;rounded=0;orthogonalLoop=1;jettySize=auto;html=1;" edge="1" parent="2d2iZHLiT1Cx9WOOCi-t-0" source="2d2iZHLiT1Cx9WOOCi-t-12" target="2d2iZHLiT1Cx9WOOCi-t-17">
          <mxGeometry relative="1" as="geometry" />
        </mxCell>
        <mxCell id="2d2iZHLiT1Cx9WOOCi-t-12" value="&lt;strong&gt;Gerar Relatório&lt;/strong&gt;" style="ellipse;whiteSpace=wrap;html=1;" vertex="1" parent="2d2iZHLiT1Cx9WOOCi-t-0">
          <mxGeometry x="745" y="45" width="80" height="80" as="geometry" />
        </mxCell>
        <mxCell id="2d2iZHLiT1Cx9WOOCi-t-16" style="edgeStyle=orthogonalEdgeStyle;rounded=0;orthogonalLoop=1;jettySize=auto;html=1;entryX=0.5;entryY=1;entryDx=0;entryDy=0;dashed=1;dashPattern=8 8;" edge="1" parent="2d2iZHLiT1Cx9WOOCi-t-0" source="2d2iZHLiT1Cx9WOOCi-t-14" target="2d2iZHLiT1Cx9WOOCi-t-4">
          <mxGeometry relative="1" as="geometry">
            <mxPoint x="140" y="130" as="targetPoint" />
          </mxGeometry>
        </mxCell>
        <mxCell id="2d2iZHLiT1Cx9WOOCi-t-14" value="&lt;strong&gt;Notificar Erro&lt;/strong&gt;" style="ellipse;whiteSpace=wrap;html=1;" vertex="1" parent="2d2iZHLiT1Cx9WOOCi-t-0">
          <mxGeometry x="585" y="205" width="80" height="80" as="geometry" />
        </mxCell>
        <mxCell id="2d2iZHLiT1Cx9WOOCi-t-20" value="" style="edgeStyle=orthogonalEdgeStyle;rounded=0;orthogonalLoop=1;jettySize=auto;html=1;" edge="1" parent="2d2iZHLiT1Cx9WOOCi-t-0" source="2d2iZHLiT1Cx9WOOCi-t-17">
          <mxGeometry relative="1" as="geometry">
            <mxPoint x="785" y="405" as="targetPoint" />
          </mxGeometry>
        </mxCell>
        <mxCell id="2d2iZHLiT1Cx9WOOCi-t-17" value="&lt;strong&gt;Finalizar Geração de Relatório&lt;/strong&gt;" style="ellipse;whiteSpace=wrap;html=1;" vertex="1" parent="2d2iZHLiT1Cx9WOOCi-t-0">
          <mxGeometry x="745" y="205" width="80" height="80" as="geometry" />
        </mxCell>
        <mxCell id="2d2iZHLiT1Cx9WOOCi-t-21" value="" style="ellipse;html=1;shape=endState;fillColor=strokeColor;" vertex="1" parent="2d2iZHLiT1Cx9WOOCi-t-0">
          <mxGeometry x="770" y="410" width="30" height="30" as="geometry" />
        </mxCell>
      </root>
    </mxGraphModel>
  </diagram>
</mxfile>
